<svg width="78" height="94" viewBox="0 0 78 94" fill="none" xmlns="http://www.w3.org/2000/svg">
<path fill-rule="evenodd" clip-rule="evenodd" d="M55.3901 34.9643C56.0256 36.0266 56.2133 37.2978 55.912 38.4985C55.6108 39.6992 54.8452 40.7312 53.7835 41.3677L44.3768 47.0191V88.7418C44.3768 89.9805 43.8847 91.1685 43.0088 92.0444C42.1329 92.9203 40.9449 93.4124 39.7062 93.4124C38.4675 93.4124 37.2795 92.9203 36.4036 92.0444C35.5277 91.1685 35.0356 89.9805 35.0356 88.7418V58.691L25.6243 53.0443C24.5866 52.3949 23.8453 51.3641 23.56 50.1737C23.2746 48.9833 23.468 47.7284 24.0986 46.6792C24.7291 45.63 25.7463 44.8702 26.9314 44.5634C28.1164 44.2566 29.3746 44.4273 30.435 45.0388L35.0356 47.7945V28.0237C35.0356 26.785 35.5277 25.597 36.4036 24.7211C37.2795 23.8452 38.4675 23.3531 39.7062 23.3531C40.9449 23.3531 42.1329 23.8452 43.0088 24.7211C43.8847 25.597 44.3768 26.785 44.3768 28.0237V36.1226L48.9821 33.3622C50.0439 32.7264 51.3146 32.538 52.5152 32.8383C53.7159 33.1387 54.7529 33.9033 55.3901 34.9643ZM39.2391 9.34124C36.2313 9.34124 33.4429 10.5369 31.2524 12.6107C30.0287 13.7783 29.0011 15.2262 28.2585 16.8656C27.7488 17.9947 26.8114 18.8751 25.6526 19.313C24.4937 19.751 23.2084 19.7107 22.0793 19.2009C20.9502 18.6912 20.0698 17.7538 19.6319 16.595C19.1939 15.4361 19.2342 14.1508 19.744 13.0217C20.9566 10.3232 22.6807 7.88538 24.8209 5.84295C28.6942 2.1097 33.8596 0.0164424 39.2391 0C44.8205 0 49.8741 2.2419 53.6574 5.84295C55.7778 7.85599 57.5059 10.2987 58.7343 13.0217C58.9867 13.5808 59.1265 14.1841 59.1457 14.7972C59.165 15.4103 59.0633 16.0212 58.8464 16.595C58.6296 17.1688 58.3018 17.6942 57.8819 18.1414C57.462 18.5885 56.9581 18.9485 56.399 19.2009C55.8399 19.4533 55.2366 19.5931 54.6235 19.6124C54.0104 19.6316 53.3995 19.5299 52.8257 19.313C51.6669 18.8751 50.7295 17.9947 50.2198 16.8656C49.504 15.2686 48.4858 13.8252 47.2212 12.6153C45.0844 10.5323 42.2232 9.35871 39.2391 9.34124Z" fill="#172A3A"/>
<path fill-rule="evenodd" clip-rule="evenodd" d="M49.9022 15.385C49.7824 14.1458 50.153 12.9091 50.9345 11.9399C51.7159 10.9707 52.846 10.3464 54.0824 10.2006C66.254 8.80412 76.6041 18.2575 77.8185 30.5178C78.6405 38.7942 75.1889 46.6455 69.1591 51.3908C68.6812 51.7732 68.1323 52.0571 67.5441 52.2261C66.9559 52.3951 66.34 52.4459 65.732 52.3756C65.124 52.3052 64.536 52.1151 64.0019 51.8162C63.4678 51.5173 62.9982 51.1156 62.6203 50.6342C61.8679 49.6473 61.5355 48.4032 61.6956 47.1726C61.8557 45.9419 62.4952 44.8242 63.475 44.0626C66.8846 41.377 69.0471 36.7298 68.538 31.5827C67.7673 23.8155 61.4293 18.7619 55.0025 19.4998C54.3966 19.5717 53.7824 19.5218 53.1961 19.3531C52.6097 19.1844 52.063 18.9003 51.5879 18.5175C51.1128 18.1346 50.719 17.6607 50.4295 17.1236C50.14 16.5865 49.9607 15.997 49.9022 15.3897" fill="#172A3A"/>
<path fill-rule="evenodd" clip-rule="evenodd" d="M65.007 43.6843C66.2166 43.4005 67.4893 43.6039 68.5502 44.2506C69.6111 44.8973 70.3751 45.9354 70.6771 47.1406C71.289 49.5553 71.5131 52.1335 71.2843 54.763C70.2801 66.2668 59.5797 74.1788 49.4164 73.1513C46.6608 72.871 43.6949 72.3386 41.0514 70.8066C38.2256 69.1719 36.2313 66.6685 34.9095 63.3336C34.6802 62.7667 34.5658 62.1598 34.5726 61.5483C34.5795 60.9368 34.7077 60.3327 34.9496 59.771C35.1916 59.2093 35.5425 58.7013 35.9822 58.2762C36.4219 57.8511 36.9415 57.5174 37.511 57.2945C38.6722 56.8548 39.9599 56.8907 41.0949 57.3943C42.2298 57.898 43.1204 58.8288 43.5735 59.9848C44.2414 61.6756 44.9607 62.3341 45.6379 62.7264C46.4973 63.2262 47.8331 63.5999 50.2291 63.8474C55.4602 64.3752 61.4526 59.9941 61.9897 53.8242C62.1299 52.2362 61.9897 50.7229 61.6395 49.3264C61.485 48.735 61.4497 48.1188 61.5356 47.5137C61.6216 46.9085 61.827 46.3265 62.1399 45.8015C62.4528 45.2765 62.8671 44.8189 63.3585 44.4554C63.8499 44.092 64.4133 43.8298 65.007 43.6843ZM28.5948 15.385C28.7133 14.1461 28.3423 12.91 27.5611 11.9411C26.7799 10.9722 25.6505 10.3475 24.4146 10.2006C12.243 8.8088 1.89753 18.2621 0.678499 30.5225C-0.13886 38.7989 3.30806 46.6502 9.3425 51.3955C9.8204 51.7779 10.3693 52.0618 10.9576 52.2308C11.5458 52.3998 12.1617 52.4506 12.7697 52.3803C13.3776 52.3099 13.9657 52.1198 14.4998 51.8209C15.0338 51.522 15.5034 51.1203 15.8814 50.6389C16.6338 49.652 16.9661 48.4079 16.806 47.1772C16.646 45.9466 16.0065 44.8289 15.0266 44.0673C11.6124 41.3817 9.44993 36.7344 9.95902 31.5874C10.7297 23.8202 17.0677 18.7619 23.4992 19.4998C24.1051 19.5717 24.7192 19.5218 25.3056 19.3531C25.8919 19.1844 26.4387 18.9003 26.9138 18.5175C27.3888 18.1346 27.7827 17.6607 28.0721 17.1236C28.3616 16.5865 28.5409 15.997 28.5995 15.3897" fill="#172A3A"/>
<path fill-rule="evenodd" clip-rule="evenodd" d="M13.4947 43.6843C12.2844 43.3991 11.0105 43.6019 9.94849 44.2487C8.88652 44.8955 8.12185 45.9344 7.81989 47.1406C7.19216 49.6295 6.98691 52.2061 7.2127 54.763C8.22156 66.2668 18.922 74.1788 29.0806 73.1513C31.8409 72.871 34.8067 72.3386 37.4503 70.8066C40.276 69.1719 42.2704 66.6685 43.5922 63.3336C43.8214 62.7667 43.9359 62.1598 43.929 61.5483C43.9221 60.9368 43.794 60.3327 43.552 59.771C43.3101 59.2093 42.9591 58.7013 42.5194 58.2762C42.0798 57.8511 41.5601 57.5174 40.9906 57.2945C39.8294 56.8548 38.5417 56.8907 37.4068 57.3943C36.2719 57.898 35.3813 58.8288 34.9282 59.9848C34.2603 61.6756 33.541 62.3341 32.8591 62.7264C31.9997 63.2262 30.6686 63.5999 28.2725 63.8474C23.0414 64.3752 17.049 59.9941 16.5119 53.8242C16.3718 52.2362 16.5119 50.7229 16.8622 49.3264C17.0166 48.7347 17.0517 48.1182 16.9655 47.5128C16.8792 46.9074 16.6734 46.3252 16.36 45.8001C16.0466 45.275 15.6319 44.8176 15.14 44.4543C14.648 44.0911 14.0888 43.8293 13.4947 43.6843Z" fill="#172A3A"/>
</svg>
